<svg xmlns="http://www.w3.org/2000/svg" viewBox="0 0 36.8 56"><path d="M24.61,40.6a5.73,5.73,0,0,1-.8-.46,3,3,0,0,0-1.08-.2,3.12,3.12,0,1,0,1.88.66Z" fill="none"/><path d="M21.42,35.61a3.07,3.07,0,1,0-4.8,2.53l.22.13a3,3,0,0,0,1.51.41A3.08,3.08,0,0,0,21.42,35.61Z" fill="none"/><path d="M19.66,28.11A3.08,3.08,0,1,0,22.73,25,3.07,3.07,0,0,0,19.66,28.11Z" fill="none"/><path d="M26.92,32.54A3.06,3.06,0,0,0,25.05,38a5.56,5.56,0,0,1,.79.45,3,3,0,0,0,1.08.2,3.07,3.07,0,1,0,0-6.14Z" fill="none"/><path d="M11,28.11A3.08,3.08,0,1,0,14.07,25,3.08,3.08,0,0,0,11,28.11Z" fill="none"/><path d="M14.07,46.08a3.07,3.07,0,0,0,1.74-5.6l-.24-.13a2.93,2.93,0,0,0-1.5-.41,3,3,0,0,0-1.51.41l-.23.13A3.05,3.05,0,0,0,11,43,3.09,3.09,0,0,0,14.07,46.08Z" fill="none"/><path d="M22.48,14.2c0-1.24-1-2.8-2.09-4.61a41.29,41.29,0,0,1-2.34-4.14c-1.88,3.15-4,7.19-4,8.75a4.21,4.21,0,0,0,8.42,0Z" fill="none"/><path d="M11.29,38.27l.23-.13a3.06,3.06,0,1,0-3.46,0l.18.1a3,3,0,0,0,3,0Z" fill="none"/><path d="M31.3,39.94A3.07,3.07,0,1,0,34.37,43,3.07,3.07,0,0,0,31.3,39.94Z" fill="none"/><path d="M26.92,47.44A3.07,3.07,0,1,0,30,50.51,3.08,3.08,0,0,0,26.92,47.44Z" fill="none"/><path d="M12.86,50.51a3.07,3.07,0,1,0-3.08,3.07A3.09,3.09,0,0,0,12.86,50.51Z" fill="none"/><path d="M21.42,50.51a3.07,3.07,0,1,0-3.07,3.07A3.08,3.08,0,0,0,21.42,50.51Z" fill="none"/><path d="M8.57,43a3.11,3.11,0,0,0-1.34-2.54L7,40.37a3,3,0,0,0-1.54-.43A3.07,3.07,0,1,0,8.57,43Z" fill="none"/><path d="M28.23,28.11A3.07,3.07,0,1,0,31.3,25,3.07,3.07,0,0,0,28.23,28.11Z" fill="none"/><path d="M8.57,28.11A3.07,3.07,0,1,0,5.5,31.17,3.08,3.08,0,0,0,8.57,28.11Z" fill="none"/><path d="M32.05,37.57a5.34,5.34,0,0,0,.37-2,5.4,5.4,0,0,0-.4-2.06,5.49,5.49,0,0,0-.72-10.93,4.58,4.58,0,0,0-.64,0,.71.71,0,0,0-.2,0h-11V20.71a6.63,6.63,0,0,0,5.42-6.51c0-1.94-1.14-3.77-2.45-5.89a27.34,27.34,0,0,1-3-5.92L18.63,0,17.26,2.12C16.32,3.58,11.63,11,11.63,14.2a6.64,6.64,0,0,0,5.43,6.51v1.91H5.39A5.48,5.48,0,0,0,4.7,33.53a5.51,5.51,0,0,0-.41,2.08,5.61,5.61,0,0,0,.37,2,5.49,5.49,0,0,0,0,10.86A5.48,5.48,0,0,0,9.43,56h17.9l.14,0a5.51,5.51,0,0,0,5-5.47,5.44,5.44,0,0,0-.4-2.06,5.49,5.49,0,0,0,0-10.88Zm-18-23.37c0-1.56,2.11-5.6,4-8.75a41.29,41.29,0,0,0,2.34,4.14c1.13,1.81,2.09,3.37,2.09,4.61a4.21,4.21,0,0,1-8.42,0Zm-6,24a3.08,3.08,0,1,1,3.46,0l-.23.13a3,3,0,0,1-3,0Zm4.27,2.33.23-.13a3,3,0,0,1,1.51-.41,2.93,2.93,0,0,1,1.5.41l.24.13a3.08,3.08,0,1,1-3.48,0Zm4.29-2.34a3.06,3.06,0,1,1,1.73.54,3,3,0,0,1-1.51-.41Zm6.11,7.94a3.07,3.07,0,0,1,0-6.14,3,3,0,0,1,1.08.2,5.73,5.73,0,0,0,.8.46A3,3,0,0,1,25.81,43,3.08,3.08,0,0,1,22.73,46.08Zm4.19-7.4a3,3,0,0,1-1.08-.2,5.56,5.56,0,0,0-.79-.45,3.06,3.06,0,1,1,1.87.65ZM25.81,28.11A3.08,3.08,0,1,1,22.73,25,3.07,3.07,0,0,1,25.81,28.11Zm-8.67,0A3.08,3.08,0,1,1,14.07,25,3.07,3.07,0,0,1,17.14,28.11Zm-1.86,22.4a3.07,3.07,0,1,1,3.07,3.07A3.08,3.08,0,0,1,15.28,50.51Zm19.09-22.4A3.07,3.07,0,1,1,31.3,25,3.07,3.07,0,0,1,34.37,28.11Zm-31.94,0A3.07,3.07,0,1,1,5.5,31.17,3.07,3.07,0,0,1,2.43,28.11Zm0,14.9A3.06,3.06,0,0,1,5.5,39.94,3,3,0,0,1,7,40.37l.19.1A3.11,3.11,0,0,1,8.57,43a3.07,3.07,0,1,1-6.14,0Zm4.29,7.5a3.07,3.07,0,1,1,3.06,3.07A3.07,3.07,0,0,1,6.72,50.51Zm20.2,3.07A3.07,3.07,0,1,1,30,50.51,3.08,3.08,0,0,1,26.92,53.58Zm4.38-7.5A3.07,3.07,0,1,1,34.37,43,3.08,3.08,0,0,1,31.3,46.08Z" fill="#fda809"/></svg>