<svg xmlns="http://www.w3.org/2000/svg" viewBox="0 0 65.32 59.94"><path d="M48.26,59.94H38a1.29,1.29,0,0,1-1-.42,1.31,1.31,0,0,1-.31-1,18.35,18.35,0,0,0,.12-2.1c0-5.3-2.15-9-4.07-9s-4.08,3.69-4.08,9a18.25,18.25,0,0,0,.11,2,1.36,1.36,0,0,1,0,.29,1.27,1.27,0,0,1-1.28,1.27H17.25a1.26,1.26,0,0,1-1.05-.56c-4.43-6.56-6.87-15.3-6.87-24.63,0-10.36,5.48-19,10.08-24.49C24.17,4.6,30.16,0,32.76,0s8.58,4.6,13.35,10.26c4.6,5.46,10.08,14.13,10.08,24.49,0,9.33-2.44,18.07-6.87,24.63A1.29,1.29,0,0,1,48.26,59.94Zm-8.9-2.55h8.21c3.92-6.08,6.07-14.08,6.07-22.64,0-18.07-18.46-32.15-20.88-32.2S11.88,16.68,11.88,34.75c0,8.56,2.15,16.56,6.06,22.64h8.21c0-.32,0-.64,0-1,0-6.47,2.91-11.55,6.63-11.55S39.38,50,39.38,56.42C39.38,56.75,39.37,57.07,39.36,57.39Z" fill="#fda809"/><path d="M43.91,12H21.05a1.28,1.28,0,0,1,0-2.55H43.91a1.28,1.28,0,0,1,0,2.55Z" fill="#fda809"/><path d="M50.71,21.62H15a1.28,1.28,0,1,1,0-2.55H50.71a1.28,1.28,0,1,1,0,2.55Z" fill="#fda809"/><path d="M53.5,31.25h-42a1.28,1.28,0,1,1,0-2.55h42a1.28,1.28,0,1,1,0,2.55Z" fill="#fda809"/><path d="M53.68,40.87h-42a1.28,1.28,0,0,1,0-2.55H53.68a1.28,1.28,0,0,1,0,2.55Z" fill="#fda809"/><path d="M28.73,50.5H13a1.28,1.28,0,1,1,0-2.56h15.7a1.28,1.28,0,1,1,0,2.56Z" fill="#fda809"/><path d="M52.46,50.5H36.75a1.28,1.28,0,0,1,0-2.56H52.46a1.28,1.28,0,0,1,0,2.56Z" fill="#fda809"/><path d="M5.6,16.55c0,1-1.25,1.86-2.8,1.86S0,17.58,0,16.55,1.25,14.7,2.8,14.7,5.6,15.53,5.6,16.55Z" fill="#fda809"/><path d="M15.33,11c0,1-1.26,1.85-2.81,1.85S9.72,12,9.72,11,11,9.13,12.52,9.13,15.33,10,15.33,11Z" fill="#fda809"/><path d="M7.36,27.5c0,1-1.26,1.85-2.8,1.85s-2.81-.83-2.81-1.85S3,25.64,4.56,25.64,7.36,26.47,7.36,27.5Z" fill="#fda809"/><path d="M65.32,26.76c0,1-1.26,1.85-2.8,1.85s-2.8-.83-2.8-1.85S61,24.9,62.52,24.9,65.32,25.73,65.32,26.76Z" fill="#fda809"/><path d="M60.22,16.74c0,1-1.26,1.85-2.81,1.85s-2.8-.83-2.8-1.85,1.26-1.86,2.8-1.86S60.22,15.71,60.22,16.74Z" fill="#fda809"/></svg>