<svg xmlns="http://www.w3.org/2000/svg" viewBox="0 0 46.41 50.12"><path d="M29,25.56H17.28a5.38,5.38,0,0,0,0,10.76H29a5.38,5.38,0,0,0,0-10.76Z" fill="none"/><path d="M11.67,10.2l.42-.16.42.17A10.19,10.19,0,0,1,15.16,12c1.75,1.46,2.56,1.88,4.54.24a6.31,6.31,0,0,1,4.09-1.84,5,5,0,0,1,3.75,1.9c.68.7,1.07,1.06,1.69,1.06a4.84,4.84,0,0,0,2.5-1.21,7,7,0,0,1,4.06-1.71,8.07,8.07,0,0,1,2.38.39,11.83,11.83,0,0,1,1.19.41h0a18.36,18.36,0,0,1-2-3.23H9.21A11,11,0,0,1,7,11.73l.88-.26C9.19,11.09,10.59,10.6,11.67,10.2Z" fill="none"/><path d="M8.51,5.66H37.9a1.68,1.68,0,1,0,0-3.36H8.51a1.68,1.68,0,1,0,0,3.36Z" fill="none"/><path d="M39.44,13.75l-.27-.12a8.71,8.71,0,0,0-3.38-.91A5.19,5.19,0,0,0,33.06,14a6.76,6.76,0,0,1-3.83,1.63,4.51,4.51,0,0,1-3.33-1.75c-.76-.77-1.23-1.21-2.11-1.21A4.23,4.23,0,0,0,21.17,14a5.48,5.48,0,0,1-3.48,1.63,6.18,6.18,0,0,1-4-1.89A10.66,10.66,0,0,0,12,12.53a53.14,53.14,0,0,1-5.2,1.64A80.91,80.91,0,0,0,2.3,38c0,8.58,10.15,9.82,10.58,9.86h20.7c.94-.12,10.53-1.51,10.53-9.86A80.94,80.94,0,0,0,39.44,13.75ZM29,38.63H17.28a7.69,7.69,0,0,1,0-15.38H29a7.69,7.69,0,0,1,0,15.38Z" fill="none"/><path d="M29,23.25H17.28a7.69,7.69,0,0,0,0,15.38H29a7.69,7.69,0,0,0,0-15.38Zm0,13.07H17.28a5.38,5.38,0,0,1,0-10.76H29a5.38,5.38,0,0,1,0,10.76Z" fill="#fda809"/><path d="M42,14l.73-.42c.48-.93-.18-1.87-1.5-3.74-.44-.62-1.14-1.62-1.54-2.34A4,4,0,0,0,37.9,0H8.51A4,4,0,0,0,6.9,7.63,12.29,12.29,0,0,1,4.83,10.8c-1,1.18-1.6,2-1.17,2.86a1.41,1.41,0,0,0,.67.63A82.27,82.27,0,0,0,0,38c0,8.53,8.26,11.68,12.75,12.16h21c4.37-.48,12.63-3.63,12.63-12.16A82.41,82.41,0,0,0,42,14ZM8.51,2.3H37.9a1.68,1.68,0,1,1,0,3.36H8.51a1.68,1.68,0,1,1,0-3.36ZM9.21,8H37.35a18.36,18.36,0,0,0,2,3.23h0a11.83,11.83,0,0,0-1.19-.41,8.07,8.07,0,0,0-2.38-.39,7,7,0,0,0-4.06,1.71,4.84,4.84,0,0,1-2.5,1.21c-.62,0-1-.36-1.69-1.06a5,5,0,0,0-3.75-1.9,6.31,6.31,0,0,0-4.09,1.84c-2,1.64-2.79,1.22-4.54-.24a10.19,10.19,0,0,0-2.65-1.76L12.09,10l-.42.16c-1.08.4-2.48.89-3.75,1.27L7,11.73A11,11,0,0,0,9.21,8ZM33.58,47.82H12.88C12.45,47.78,2.3,46.54,2.3,38A80.91,80.91,0,0,1,6.82,14.17,53.14,53.14,0,0,0,12,12.53a10.66,10.66,0,0,1,1.67,1.21,6.18,6.18,0,0,0,4,1.89A5.48,5.48,0,0,0,21.17,14a4.23,4.23,0,0,1,2.62-1.33c.88,0,1.35.44,2.11,1.21a4.51,4.51,0,0,0,3.33,1.75A6.76,6.76,0,0,0,33.06,14a5.19,5.19,0,0,1,2.73-1.28,8.71,8.71,0,0,1,3.38.91l.27.12A80.94,80.94,0,0,1,44.11,38C44.11,46.31,34.52,47.7,33.58,47.82Z" fill="#fda809"/></svg>