<svg xmlns="http://www.w3.org/2000/svg" viewBox="0 0 51.77 49.96"><path d="M17,18.69,8.9,14V4.67L17,0l8.09,4.67V14Zm-5.83-6L17,16.07l5.82-3.36V6L17,2.62,11.16,6Z" fill="#fda809"/><path d="M34.78,18.69,26.69,14V4.67L34.78,0l8.1,4.67V14Zm-5.82-6,5.82,3.36,5.83-3.36V6L34.78,2.62,29,6Z" fill="#fda809"/><path d="M38.15,11.08A1.14,1.14,0,0,1,37,10v-2l-1.75-1A1.13,1.13,0,1,1,36.4,5l2.88,1.66V10A1.13,1.13,0,0,1,38.15,11.08Z" fill="#fda809"/><path d="M20.36,11.08A1.14,1.14,0,0,1,19.22,10v-2l-1.75-1A1.13,1.13,0,1,1,18.6,5l2.89,1.66V10A1.14,1.14,0,0,1,20.36,11.08Z" fill="#fda809"/><path d="M25.88,34.18l-8.09-4.67V20.16l8.09-4.67L34,20.16v9.35Zm-5.82-6,5.82,3.36,5.83-3.36V21.47l-5.83-3.36-5.82,3.36Z" fill="#fda809"/><path d="M43.67,34.18l-8.09-4.67V20.16l8.09-4.67,8.1,4.67v9.35Zm-5.82-6,5.82,3.36L49.5,28.2V21.47l-5.83-3.36-5.82,3.36Z" fill="#fda809"/><path d="M47.05,26.57a1.14,1.14,0,0,1-1.14-1.13v-2l-1.75-1a1.13,1.13,0,0,1,1.13-2l2.89,1.67v3.34A1.14,1.14,0,0,1,47.05,26.57Z" fill="#fda809"/><path d="M29.25,26.57a1.14,1.14,0,0,1-1.14-1.13v-2l-1.75-1a1.13,1.13,0,0,1,1.14-2l2.88,1.67v3.34A1.14,1.14,0,0,1,29.25,26.57Z" fill="#fda809"/><path d="M8.09,34.47,0,29.8V20.45l8.09-4.67,8.09,4.67V29.8Zm-5.83-6,5.83,3.37,5.83-3.37V21.76L8.09,18.4,2.26,21.76Z" fill="#fda809"/><path d="M11.46,26.86a1.13,1.13,0,0,1-1.13-1.13v-2l-1.76-1a1.14,1.14,0,0,1-.41-1.55,1.12,1.12,0,0,1,1.54-.42l2.89,1.67v3.34A1.14,1.14,0,0,1,11.46,26.86Z" fill="#fda809"/><path d="M17,50l-8.1-4.67V35.94L17,31.27l8.09,4.67v9.35Zm-5.83-6L17,47.34,22.81,44V37.25L17,33.89l-5.83,3.36Z" fill="#fda809"/><path d="M34.78,50l-8.1-4.67V35.94l8.1-4.67,8.09,4.67v9.35ZM29,44l5.83,3.36L40.61,44V37.25l-5.83-3.36L29,37.25Z" fill="#fda809"/><path d="M38.15,42.35A1.14,1.14,0,0,1,37,41.21v-2l-1.76-1a1.15,1.15,0,0,1-.42-1.55,1.13,1.13,0,0,1,1.55-.41l2.89,1.67v3.33A1.13,1.13,0,0,1,38.15,42.35Z" fill="#fda809"/><path d="M20.35,42.35a1.14,1.14,0,0,1-1.13-1.14v-2l-1.75-1a1.13,1.13,0,0,1,1.13-2l2.89,1.67v3.33A1.14,1.14,0,0,1,20.35,42.35Z" fill="#fda809"/></svg>