<svg xmlns="http://www.w3.org/2000/svg" viewBox="0 0 50.23 50.59"><path d="M35.37,45.11c0-.07,0-.14.05-.21s.07-.24.09-.37a1.41,1.41,0,0,0,0-.21,5.17,5.17,0,0,0-.11-1.22c0-.25-.11-.52-.19-.81l-.09-.35c-.08-.26-.16-.54-.25-.82-.22-.67-.48-1.38-.76-2.1L34,38.7l-.17-.41-.27-.67c-.2-.46-.4-.91-.59-1.36s-.32-.7-.48-1a.89.89,0,0,0-.08-.17l-.23.26-.09.1-.16.18-.76.88,0,.05a42.09,42.09,0,0,0-3.27,4.33c-.24.38-.45.75-.63,1.08a4.55,4.55,0,0,0-.49,1.3h0a4.44,4.44,0,0,0,3.74,5,4.28,4.28,0,0,0,2.89-.58,4.36,4.36,0,0,0,1.19-1,4.59,4.59,0,0,0,.66-1.11C35.28,45.41,35.32,45.26,35.37,45.11Z" fill="none"/><path d="M16.86,32.55,13.2,36.21a1.09,1.09,0,0,1-.8.33,1.07,1.07,0,0,1-.8-.33,1.12,1.12,0,0,1,0-1.6L15.26,31a11.08,11.08,0,0,1-2.41-5.69l-.41-.14A27.11,27.11,0,0,0,3.8,30.31c-2.88,2.88-1,10.38.08,13.61a29.24,29.24,0,0,0,8.57,1.63c2.32,0,4-.52,5.05-1.54a27.69,27.69,0,0,0,5.17-8.69L22.55,35A11,11,0,0,1,16.86,32.55Z" fill="none"/><path d="M15.26,16.88,11.6,13.21a1.12,1.12,0,0,1,0-1.6,1.13,1.13,0,0,1,1.6,0l3.66,3.67A11,11,0,0,1,22.5,13c.06-.16.12-.31.17-.46a27.63,27.63,0,0,0-5.17-8.7c-1-1-2.73-1.54-5.05-1.54A29.17,29.17,0,0,0,3.88,3.9C2.75,7.13.92,14.63,3.8,17.51a26.93,26.93,0,0,0,8.64,5.19l.41-.14A11,11,0,0,1,15.26,16.88Z" fill="none"/><path d="M30.93,15.28l3.67-3.67a1.13,1.13,0,1,1,1.6,1.6l-3.66,3.67a11,11,0,0,1,2.4,5.68l.42.14A27.16,27.16,0,0,0,44,17.51c2.88-2.88,1-10.38-.08-13.61a29.33,29.33,0,0,0-8.58-1.63c-2.32,0-4,.52-5,1.54a27.57,27.57,0,0,0-5.2,8.65c.07.17.13.34.19.51A11,11,0,0,1,30.93,15.28Z" fill="none"/><path d="M29.62,33.57a2.18,2.18,0,0,0,.68.45l1-1.11.52-.55.09-.12c.14-.13.48-.48,1-.94l.72-.68a2.41,2.41,0,0,0-.4-.58L33.14,30a2.46,2.46,0,0,0-.88-.55,2.63,2.63,0,0,0-.88-.16,3.13,3.13,0,0,0-.44,0h-.05a2.42,2.42,0,0,0-1.79,1.42,2.4,2.4,0,0,0-.11,1.8,2.39,2.39,0,0,0,.57,1S29.59,33.55,29.62,33.57Z" fill="none"/><path d="M35.41,36.19c0,.11.09.22.14.33a.54.54,0,0,0,.05.11,1.39,1.39,0,0,0,.43-.3h0a1.6,1.6,0,0,0,.31-.47l-.44-.17L35,35.32Z" fill="none"/><path d="M43.74,43.84c.14-.15.24-.31.36-.46a4.92,4.92,0,0,0,.61-1.06A4.64,4.64,0,0,0,45,40.17a4.5,4.5,0,0,0-1-2.3h0a2.5,2.5,0,0,1,0,.29A7.65,7.65,0,0,1,41.87,42a7.57,7.57,0,0,1-3.82,2.14l-.26,0s0,0,0,0a4.66,4.66,0,0,0,1.85.82,4.8,4.8,0,0,0,2.49-.22,4.38,4.38,0,0,0,1.33-.79C43.54,44,43.65,43.93,43.74,43.84Z" fill="none"/><path d="M47.14,33.77A3.91,3.91,0,0,0,47.6,33a4.42,4.42,0,0,0-4.32-6.16,4.73,4.73,0,0,0-.52,0,3.39,3.39,0,0,0-.94.34,9.44,9.44,0,0,0-1.11.63,40.85,40.85,0,0,0-4.59,3.6l-.09.08-.89.8L35,32.4l-.07.06-.26.25.17.07,1,.45c.44.19.89.38,1.36.56l.8.31.39.15.24.09c.72.27,1.45.51,2.14.72.27.08.54.16.8.22l.35.09c.28.07.55.12.8.16a5,5,0,0,0,1.23.08l.25,0c.11,0,.22-.07.34-.09l.19-.06a3.46,3.46,0,0,0,.75-.3,4.49,4.49,0,0,0,1.6-1.37Z" fill="none"/><path d="M41.72,37.6a28.88,28.88,0,0,1-3.24-.94,4,4,0,0,1-.83,1.25,3.87,3.87,0,0,1-1.21.84,29.77,29.77,0,0,1,1,3.23,5.51,5.51,0,0,0,2.8-1.53A5.43,5.43,0,0,0,41.72,37.6Z" fill="none"/><path d="M25.38,36l-.08-.13.07.15Z" fill="#fff"/><path d="M25.37,36l-.07-.15c-.08-.12-.16-.26-.23-.39s-.2-.31-.28-.47a7.44,7.44,0,0,1-.42-1.11,7,7,0,0,1-.25-1.21h-.55a5.06,5.06,0,0,1-.55,0,9.69,9.69,0,0,1-1.2-.2,8.75,8.75,0,0,1-3.34-1.53A8.84,8.84,0,0,1,15.28,26,9.46,9.46,0,0,1,15,24.24v-.66a9.24,9.24,0,0,1,.24-1.73,8.68,8.68,0,0,1,1.6-3.36,9.9,9.9,0,0,1,.74-.86,8.61,8.61,0,0,1,.86-.74,8.73,8.73,0,0,1,3.35-1.6,8.91,8.91,0,0,1,1.72-.24h.68a8.48,8.48,0,0,1,1.75.24,8.76,8.76,0,0,1,3.34,1.6,8.27,8.27,0,0,1,1.6,1.6,9,9,0,0,1,1.6,3.36,9.87,9.87,0,0,1,.21,1.21c0,.17,0,.35,0,.52s0,.44,0,.66,0,.29,0,.43a6.8,6.8,0,0,1,1.12.28,5.59,5.59,0,0,1,.91.37l.16.09v0a1.55,1.55,0,0,0,.59.24,1.55,1.55,0,0,0,.54-.4l.91-.68.21-.15.88-.59a11.79,11.79,0,0,1,3.48-1.64,21.66,21.66,0,0,0,4.07-3.06c4.69-4.69.44-16,.26-16.5l-.18-.48L45.2,2A31.88,31.88,0,0,0,35.34,0c-2.94,0-5.17.74-6.65,2.21a27.5,27.5,0,0,0-4.8,7.35A28.09,28.09,0,0,0,19.1,2.21C17.63.74,15.4,0,12.45,0A31.78,31.78,0,0,0,2.6,2l-.48.18-.18.48c-.19.48-4.43,11.81.26,16.5a27.12,27.12,0,0,0,7.33,4.8,27.12,27.12,0,0,0-7.33,4.8c-4.69,4.69-.45,16-.26,16.5l.18.48.48.18a31.78,31.78,0,0,0,9.85,2c3,0,5.18-.75,6.65-2.21a23.13,23.13,0,0,0,3.21-4.35,14.67,14.67,0,0,1,1.55-3.06c.08-.13.15-.25.24-.38s.32-.48.49-.73S25.09,36.39,25.37,36ZM30.3,3.81c1-1,2.72-1.54,5-1.54A29.33,29.33,0,0,1,43.92,3.9c1.13,3.23,3,10.73.08,13.61a27.16,27.16,0,0,1-8.64,5.19l-.42-.14a11,11,0,0,0-2.4-5.68l3.66-3.67a1.13,1.13,0,1,0-1.6-1.6l-3.67,3.67A11,11,0,0,0,25.29,13c-.06-.17-.12-.34-.19-.51A27.57,27.57,0,0,1,30.3,3.81ZM3.8,17.51c-2.88-2.88-1-10.38.08-13.61a29.17,29.17,0,0,1,8.57-1.63c2.32,0,4,.52,5.05,1.54a27.63,27.63,0,0,1,5.17,8.7c-.05.15-.11.3-.17.46a11,11,0,0,0-5.64,2.31L13.2,11.61a1.13,1.13,0,0,0-1.6,0,1.12,1.12,0,0,0,0,1.6l3.66,3.67a11,11,0,0,0-2.41,5.68l-.41.14A26.93,26.93,0,0,1,3.8,17.51ZM17.5,44c-1,1-2.73,1.54-5.05,1.54a29.24,29.24,0,0,1-8.57-1.63c-1.13-3.23-3-10.73-.08-13.61a27.11,27.11,0,0,1,8.64-5.19l.41.14A11.08,11.08,0,0,0,15.26,31L11.6,34.61a1.12,1.12,0,0,0,0,1.6,1.07,1.07,0,0,0,.8.33,1.09,1.09,0,0,0,.8-.33l3.66-3.66A11,11,0,0,0,22.55,35l.12.36A27.69,27.69,0,0,1,17.5,44Z" fill="#fda809"/><path d="M50.13,30.09a6.68,6.68,0,0,0-7.74-5.5,5.9,5.9,0,0,0-1.64.6c-.37.19-.76.4-1.16.65s-.71.46-1.07.71c-1.09.77-2.2,1.67-3.19,2.53a4.72,4.72,0,0,0-.61-.73,3.17,3.17,0,0,0-.46-.36,4.93,4.93,0,0,0-1-.58,5.27,5.27,0,0,0-1.1-.3,5,5,0,0,0-3,.47,4.57,4.57,0,0,0-1.21.85,4.93,4.93,0,0,0-.5.63,4.73,4.73,0,0,0-.81,3.22,5.23,5.23,0,0,0,.27,1.17,4.46,4.46,0,0,0,.52,1,4.1,4.1,0,0,0,.6.72,4.77,4.77,0,0,0,.76.6c-.74.9-1.5,1.89-2.18,2.88-.25.36-.49.72-.71,1.07s-.46.78-.65,1.15a6.59,6.59,0,0,0,4.91,9.63,7.91,7.91,0,0,0,1,.07,6.69,6.69,0,0,0,5.43-2.82,6.28,6.28,0,0,0,.67-1.15,6.93,6.93,0,0,0,2.35.78,6.88,6.88,0,0,0,3-.26c1.51,0,2.93.06,3.31.06h1.29l0-1.15c0-.1,0-1.7-.14-3.44a6.85,6.85,0,0,0,.25-2.34,6.66,6.66,0,0,0-.71-2.64,3.72,3.72,0,0,0-.19-.34l.23-.11a6.1,6.1,0,0,0,1.19-.78,6.64,6.64,0,0,0,2.36-6.3ZM33.37,47.69a4.28,4.28,0,0,1-2.89.58,4.44,4.44,0,0,1-3.74-5h0a4.55,4.55,0,0,1,.49-1.3c.18-.33.39-.7.63-1.08a42.09,42.09,0,0,1,3.27-4.33l0-.05.76-.88.16-.18.09-.1.23-.26a.89.89,0,0,1,.08.17c.16.33.32.68.48,1s.39.9.59,1.36l.27.67.17.41.12.32c.28.72.54,1.43.76,2.1.09.28.17.56.25.82l.09.35c.08.29.14.56.19.81a5.17,5.17,0,0,1,.11,1.22,1.41,1.41,0,0,1,0,.21c0,.13-.06.24-.09.37s0,.14-.05.21-.09.3-.15.44a4.59,4.59,0,0,1-.66,1.11A4.36,4.36,0,0,1,33.37,47.69ZM28.93,31.2a2.48,2.48,0,0,1,.17-.48,2.42,2.42,0,0,1,1.79-1.42h.05a3.13,3.13,0,0,1,.44,0,2.63,2.63,0,0,1,.88.16,2.46,2.46,0,0,1,.88.55l.06.07a2.41,2.41,0,0,1,.4.58l-.72.68c-.49.46-.83.81-1,.94l-.09.12-.52.55L30.3,34a2.18,2.18,0,0,1-.68-.45s0,0-.06-.07a2.39,2.39,0,0,1-.57-1A2.47,2.47,0,0,1,28.93,31.2Zm7.41,4.66a1.6,1.6,0,0,1-.31.47h0a1.39,1.39,0,0,1-.43.3.54.54,0,0,1-.05-.11c0-.11-.1-.22-.14-.33L35,35.32l.87.37ZM37.46,42a29.77,29.77,0,0,0-1-3.23,3.87,3.87,0,0,0,1.21-.84,4,4,0,0,0,.83-1.25,28.88,28.88,0,0,0,3.24.94,5.43,5.43,0,0,1-1.46,2.85A5.51,5.51,0,0,1,37.46,42Zm2.17,3.1a4.66,4.66,0,0,1-1.85-.82s0,0,0,0l.26,0A7.57,7.57,0,0,0,41.87,42a7.65,7.65,0,0,0,2.05-3.87,2.5,2.5,0,0,0,0-.29h0a4.5,4.5,0,0,1,1,2.3,4.64,4.64,0,0,1-.25,2.15,4.92,4.92,0,0,1-.61,1.06c-.12.15-.22.31-.36.46s-.2.15-.29.23a4.38,4.38,0,0,1-1.33.79A4.8,4.8,0,0,1,39.63,45.08Zm5.16-9.64-.19.06c-.12,0-.23.07-.34.09l-.25,0a5,5,0,0,1-1.23-.08c-.25,0-.52-.09-.8-.16l-.35-.09c-.26-.06-.53-.14-.8-.22-.69-.21-1.42-.45-2.14-.72l-.24-.09-.39-.15-.8-.31c-.47-.18-.92-.37-1.36-.56l-1-.45-.17-.07.26-.25L35,32.4l.12-.12.89-.8.09-.08a40.85,40.85,0,0,1,4.59-3.6,9.44,9.44,0,0,1,1.11-.63,3.39,3.39,0,0,1,.94-.34,4.73,4.73,0,0,1,.52,0A4.42,4.42,0,0,1,47.6,33a3.91,3.91,0,0,1-.46.82,4.49,4.49,0,0,1-1.6,1.37A3.46,3.46,0,0,1,44.79,35.44Z" fill="#fda809"/></svg>