<svg id="Layer_1" data-name="Layer 1" xmlns="http://www.w3.org/2000/svg" viewBox="0 0 32 32"><defs><style>.cls-1{fill:#fdd00f;}</style></defs><path class="cls-1" d="M18.78,10.91l-2.27.14a1.66,1.66,0,0,1-.05-.26,11,11,0,0,0-.64-2.49A7,7,0,0,0,14.45,6,9.68,9.68,0,0,0,8.09,2.71a9.58,9.58,0,0,0-1.93,0l-.22,0a3.91,3.91,0,0,0-.05.48,9.94,9.94,0,0,0,1,5A10.56,10.56,0,0,0,8.48,10.5,8.15,8.15,0,0,0,10,11.77a.23.23,0,0,1,.09.07s0,0,0,.05L9.77,12l-1.27.43a.33.33,0,0,1-.36-.07A11.54,11.54,0,0,1,5,7.82a11.07,11.07,0,0,1-.71-3.73,10.51,10.51,0,0,1,.14-2.17.81.81,0,0,1,.72-.75A13.84,13.84,0,0,1,7.5,1a12.53,12.53,0,0,1,2,.26,10.85,10.85,0,0,1,2.27.77,11.23,11.23,0,0,1,2.73,1.75,9.62,9.62,0,0,1,3,4.37,1.63,1.63,0,0,0,.12.29c.05-.12.1-.19.12-.26A9,9,0,0,1,19,5.91a5.51,5.51,0,0,1,2.75-2.08,5.05,5.05,0,0,1,6.36,3.25,4.72,4.72,0,0,1,.24,1.34,4.94,4.94,0,0,1-1.12,3.42,7.93,7.93,0,0,1-1.56,1.39A10.06,10.06,0,0,1,22,14.78a23.21,23.21,0,0,1-3.63.43c-1.48.1-3,.22-4.47.34a16.45,16.45,0,0,0-3.4.71A10.41,10.41,0,0,0,7,18.1a12.65,12.65,0,0,0-4.37,8.83,12.63,12.63,0,0,0,0,2.13.53.53,0,0,0,0,.19c1.48.36,5.36-.17,6.29-.86-.07-.07-.14-.17-.22-.27-1-1-2-2-3-3a.43.43,0,0,1-.12-.58c.14-.33.29-.69.41-1a1.43,1.43,0,0,1,.14-.28l.24.23,3.9,3.9c.24.24.24.31.57.07.48-.35,1-.69,1.46-1.05a1.36,1.36,0,0,0,.17-.17c-.31-.33-.67-.66-1-1s-.67-.67-1-1l-1-1-1-1-1-1a4.53,4.53,0,0,1,1.17-1.14,1.22,1.22,0,0,1,.27.23l4.37,4.43c.1.09.19.19.31.29a.91.91,0,0,0,.17-.17,10.16,10.16,0,0,0,1-1.56c.16-.28.16-.28-.08-.52L11.2,19.09,11,18.85a.69.69,0,0,1,.17-.1c.5-.14,1-.26,1.51-.43a.34.34,0,0,1,.36.12L15.55,21l.22.21c.12,0,.12-.16.17-.24a16.89,16.89,0,0,0,.52-2.75c0-.12,0-.23.05-.35l2.2-.15c0,.12.05.22.07.34a14.63,14.63,0,0,0,.65,2.44,7.52,7.52,0,0,0,1.43,2.34,9.74,9.74,0,0,0,4.07,2.7,9.64,9.64,0,0,0,3.39.55c.31,0,.65-.05,1-.05a4.21,4.21,0,0,0,.05-.62A10.09,10.09,0,0,0,28.54,21a9.67,9.67,0,0,0-1.6-2.53,7.81,7.81,0,0,0-2-1.72.14.14,0,0,0-.09,0s0,0,0-.05l1.63-.76.5.36a9.08,9.08,0,0,1,1.41,1.43,11.45,11.45,0,0,1,2.51,9,1.61,1.61,0,0,1-.14.5.8.8,0,0,1-.63.41,11.64,11.64,0,0,1-4.28-.12,11,11,0,0,1-4-1.77A9.86,9.86,0,0,1,17.9,21a1.94,1.94,0,0,1-.1-.24c-.09.07-.09.17-.14.26-.19.63-.38,1.27-.62,1.89a12.36,12.36,0,0,1-1.49,2.66,12.67,12.67,0,0,1-1.86,2,13.13,13.13,0,0,1-2.51,1.72A14.58,14.58,0,0,1,2,30.87c-.58-.09-.82-.28-.89-.9S1,28.7.94,28.08a14.51,14.51,0,0,1,.41-3.88A13.79,13.79,0,0,1,3.22,20a13.16,13.16,0,0,1,2-2.49,11.46,11.46,0,0,1,3.15-2.2,14.36,14.36,0,0,1,4-1.22,38.18,38.18,0,0,1,4.11-.43c1.32-.1,2.63-.17,3.95-.31a9.61,9.61,0,0,0,3.61-1.08,6.35,6.35,0,0,0,1.84-1.43,3.35,3.35,0,0,0-4.47-4.88,3.65,3.65,0,0,0-1,1,7.2,7.2,0,0,0-1.13,2c-.17.5-.28,1-.43,1.53a1.34,1.34,0,0,0-.12.46"/></svg>