<svg xmlns="http://www.w3.org/2000/svg" viewBox="0 0 50.56 50.59"><path d="M50.56,13H0V7H50.56ZM2.27,10.72h46V9.24h-46Z" fill="#fda809"/><path d="M2.15,10.72V45.29a5.31,5.31,0,0,0,5.29,5.3H43.13a5.3,5.3,0,0,0,5.28-5.3V10.72Zm44,34.57a3,3,0,0,1-3,3H7.44a3,3,0,0,1-3-3V13H46.15Z" fill="#fda809"/><path d="M33.38,9.24H17.18V8.1a8.1,8.1,0,1,1,16.2,0ZM19.55,7H31A5.84,5.84,0,0,0,19.55,7Z" fill="#fda809"/><path d="M45.67,46.92l-2.4,1.39A3,3,0,0,0,45.67,46.92Z" fill="#fda809"/><path d="M7,48.28,5.08,47.17A3.09,3.09,0,0,0,7,48.28Z" fill="#fda809"/><polygon points="46.15 14.34 46.15 12.99 43.8 12.99 46.15 14.34" fill="#fda809"/><path d="M33.75,46.85v-7.3l5.89-3.4L46,39.8v6.53a3,3,0,0,0,.2-1V37.06l-5-2.91V27.2l5-2.91V21.58L40.24,25l-6.47-3.72v-6.9L36.15,13h-7l2.39,1.38v6.88l-6.21,3.6-6-3.46V14.24L21.46,13H14.6l2.21,1.27v7l-6.37,3.68L4.59,21.55V14.37L7,13H4.42V24.16l5,2.91V34l-5,2.91V40L11,36.23l5.79,3.34v7.18l-2.72,1.57h7.57l-2.59-1.49V39.64l6.22-3.59,6,3.47V47l-2.36,1.36H36.3ZM24.14,34l-6.21,3.59-6-3.47v-7l6.11-3.53,6.09,3.52Zm2.27,0V27.1l6.22-3.59,6.22,3.59v6.78l-6.33,3.65Z" fill="#fda809"/></svg>