<svg xmlns="http://www.w3.org/2000/svg" viewBox="0 0 32.56 48.6"><path d="M27.46,46.07a1.39,1.39,0,0,0,1,.26,2.08,2.08,0,0,0,.8-.14c.64-.29,1.16-1.2,1.07-1.42L20,23.16l-2.17,1Z" fill="none"/><path d="M10.32,2.76a.86.86,0,0,0-.79-.51.8.8,0,0,0-.34.07.84.84,0,0,0-.44.47.86.86,0,0,0,0,.65L9,4l1.55-.71Z" fill="none"/><path d="M32.36,43.82,22.09,22.23,20,23.16,30.3,44.77c.09.22-.43,1.13-1.07,1.42a2.08,2.08,0,0,1-.8.14,1.39,1.39,0,0,1-1-.26L17.85,24.15l-2.07.93L25.39,47a3.13,3.13,0,0,0,3,1.61,4.14,4.14,0,0,0,1.73-.35C31.57,47.62,33.14,45.59,32.36,43.82Z" fill="#fda809"/><path d="M28.35,7.3a3.18,3.18,0,0,0-3.9-1.61,3.25,3.25,0,0,0-.23-.85,3.16,3.16,0,0,0-4.11-1.55l-.08,0a3.54,3.54,0,0,0-.23-.83A3.18,3.18,0,0,0,15.69.94L12.62,2.33l-.25-.52A3.19,3.19,0,0,0,8.25.26,3.08,3.08,0,0,0,6.63,2,3,3,0,0,0,6.7,4.36l.24.54L3.86,6.29A3.08,3.08,0,0,0,2.23,8,3.11,3.11,0,0,0,2.3,10.4a3.46,3.46,0,0,0,.46.73l-.07,0a3.1,3.1,0,0,0-1.54,4.11,3,3,0,0,0,.47.74A3.1,3.1,0,0,0,3.1,21.83a3,3,0,0,0,1.07-.21,3.32,3.32,0,0,0,.23.86A3.12,3.12,0,0,0,7.23,24.3,3,3,0,0,0,8.52,24l.07,0a3,3,0,0,0,.23.82,3.12,3.12,0,0,0,4.11,1.56l2.85-1.29,2.07-.93,2.17-1,2.07-.93L24.76,21a3.09,3.09,0,0,0,1.55-4.1,2.49,2.49,0,0,0-.47-.72l.09,0A3.13,3.13,0,0,0,27.48,12a3.05,3.05,0,0,0-.5-.73,3.05,3.05,0,0,0,1.44-1.62A3.1,3.1,0,0,0,28.35,7.3ZM8.75,2.79a.84.84,0,0,1,.44-.47.8.8,0,0,1,.34-.07.86.86,0,0,1,.79.51l.23.5L9,4l-.23-.53A.86.86,0,0,1,8.75,2.79Zm-4.4,6a.79.79,0,0,1,.44-.47L7.85,7,9.91,6l1.62-.73,2.06-.93,3-1.37A.72.72,0,0,1,17,2.93a.84.84,0,0,1,.76.49.8.8,0,0,1,0,.66.81.81,0,0,1-.43.46l-3,1.36-2.07.93-1.66.76-2.06.93-3,1.38a.86.86,0,0,1-1.11-.43A.84.84,0,0,1,4.35,8.83ZM3.19,13.69a.85.85,0,0,1,.44-.47L9.44,10.6l2.06-.94,1.73-.78L15.29,8,21,5.35a.85.85,0,0,1,.7,1.54l-2.06.93L16,9.47,14,10.4l-1.77.81-2.07.93L4.32,14.76a.85.85,0,0,1-1.13-1.07Zm21.08,4.8a.8.8,0,0,1-.44.46l-2.72,1.23-2.06.94-2.11.95L14.87,23,12,24.3a.85.85,0,0,1-.35.08.84.84,0,0,1-.77-.5.86.86,0,0,1,0-.65.83.83,0,0,1,.44-.46l2.9-1.31,2.06-.93,2.06-.94,2.07-.93,2.75-1.24a.81.81,0,0,1,.34-.08.85.85,0,0,1,.79,1.15Zm.72-4.4-2.76,1.25h0l-2.79,1.26-2.06.94-2,.9-2.06.93L10.37,20.7h0L7.59,22a.86.86,0,0,1-1.12-.42.79.79,0,0,1,0-.64.81.81,0,0,1,.44-.47l5.72-2.59,2.06-.93,2-.89,2.06-.93,5.61-2.54a1,1,0,0,1,.34-.07A.84.84,0,0,1,25,14.09ZM26.3,8.88a.78.78,0,0,1-.44.47L17.71,13,15.65,14l-1.89.85-2.06.94L3.45,19.49a.86.86,0,0,1-1.11-.42A.85.85,0,0,1,2.76,18L11,14.22l2.07-.94,1.84-.83L17,11.52l4.94-2.23L22.67,9h0l2.5-1.13a.84.84,0,0,1,.35-.07.82.82,0,0,1,.76.49A.76.76,0,0,1,26.3,8.88Z" fill="#fda809"/><path d="M6.35,35.48a3.08,3.08,0,0,1-3.08-3.09c0-1.24,1.47-3.85,2.1-4.9a1.14,1.14,0,0,1,1-.56h0a1.11,1.11,0,0,1,1,.56c.64,1.06,2.1,3.66,2.1,4.9A3.08,3.08,0,0,1,6.35,35.48Zm0-5.06a8.36,8.36,0,0,0-.82,2,.82.82,0,0,0,.82.81.81.81,0,0,0,.8-.82A8.13,8.13,0,0,0,6.35,30.42Z" fill="#fda809"/></svg>