<svg xmlns="http://www.w3.org/2000/svg" viewBox="0 0 42.94 50.25"><ellipse cx="21.41" cy="6.17" rx="6.96" ry="5.04" fill="#3d3d3d"/><path d="M21.41,12.34c-4.46,0-8.09-2.77-8.09-6.17S17,0,21.41,0,29.5,2.77,29.5,6.17,25.87,12.34,21.41,12.34Zm0-10.07c-3.16,0-5.82,1.78-5.82,3.9s2.66,3.9,5.82,3.9,5.82-1.79,5.82-3.9S24.57,2.27,21.41,2.27Z" fill="#fff"/><ellipse cx="21.41" cy="44.08" rx="6.96" ry="5.04" fill="#3d3d3d"/><path d="M21.41,50.25c-4.46,0-8.09-2.77-8.09-6.17s3.63-6.17,8.09-6.17,8.09,2.76,8.09,6.17S25.87,50.25,21.41,50.25Zm0-10.08c-3.16,0-5.82,1.79-5.82,3.91S18.25,48,21.41,48s5.82-1.79,5.82-3.9S24.57,40.17,21.41,40.17Z" fill="#fff"/><path d="M33.25,10c0,2.09-1.34,3.79-3,3.79H12.68c-1.65,0-3-1.7-3-3.79h0c0-2.09,1.35-3.79,3-3.79H30.26c1.65,0,3,1.7,3,3.79Z" fill="#3d3d3d"/><path d="M30.26,14.89H12.68c-2.28,0-4.13-2.22-4.13-4.93S10.4,5,12.68,5H30.26c2.28,0,4.13,2.2,4.13,4.92S32.54,14.89,30.26,14.89ZM12.68,7.3c-1,0-1.86,1.22-1.86,2.66s.85,2.66,1.86,2.66H30.26c1,0,1.86-1.22,1.86-2.66S31.27,7.3,30.26,7.3Z" fill="#fff"/><path d="M37.43,17.54A3.63,3.63,0,0,1,34,21.33h-25a3.63,3.63,0,0,1-3.47-3.79h0a3.63,3.63,0,0,1,3.47-3.79H34a3.63,3.63,0,0,1,3.47,3.79Z" fill="#3d3d3d"/><path d="M34,22.46h-25a4.78,4.78,0,0,1-4.6-4.92,4.78,4.78,0,0,1,4.6-4.92H34a4.77,4.77,0,0,1,4.6,4.92A4.77,4.77,0,0,1,34,22.46Zm-25-7.57a2.51,2.51,0,0,0-2.33,2.65A2.51,2.51,0,0,0,8.92,20.2H34a2.52,2.52,0,0,0,2.34-2.66A2.51,2.51,0,0,0,34,14.89Z" fill="#fff"/><path d="M9.62,40.29c0-2.1,1.35-3.79,3-3.79H30.2c1.65,0,3,1.69,3,3.79h0c0,2.09-1.34,3.79-3,3.79H12.62c-1.65,0-3-1.7-3-3.79Z" fill="#3d3d3d"/><path d="M30.2,45.21H12.62c-2.28,0-4.13-2.21-4.13-4.92s1.85-4.92,4.13-4.92H30.2c2.27,0,4.12,2.21,4.12,4.92S32.47,45.21,30.2,45.21ZM12.62,37.63c-1,0-1.86,1.22-1.86,2.66s.85,2.65,1.86,2.65H30.2c1,0,1.86-1.21,1.86-2.65s-.85-2.66-1.86-2.66Z" fill="#fff"/><path d="M5.45,32.7a3.64,3.64,0,0,1,3.47-3.79H34a3.64,3.64,0,0,1,3.47,3.79h0A3.64,3.64,0,0,1,34,36.5h-25a3.64,3.64,0,0,1-3.47-3.8Z" fill="#3d3d3d"/><path d="M34,37.63h-25a4.94,4.94,0,0,1,0-9.85H34a4.94,4.94,0,0,1,0,9.85Zm-25-7.58a2.68,2.68,0,0,0,0,5.32H34a2.68,2.68,0,0,0,0-5.32Z" fill="#fff"/><path d="M41.8,25.13A3.79,3.79,0,0,1,38,28.91H4.93a3.79,3.79,0,0,1-3.8-3.78h0a3.8,3.8,0,0,1,3.8-3.8H38a3.8,3.8,0,0,1,3.79,3.8Z" fill="#3d3d3d"/><path d="M38,30.05H4.93a4.93,4.93,0,1,1,0-9.85H38a4.93,4.93,0,1,1,0,9.85ZM4.93,22.46a2.66,2.66,0,1,0,0,5.32H38a2.66,2.66,0,1,0,0-5.32Z" fill="#fff"/><path d="M28.78,25.13a7.31,7.31,0,1,1-7.31-7.31A7.3,7.3,0,0,1,28.78,25.13Z" fill="#3d3d3d"/><path d="M21.47,33.56a8.44,8.44,0,1,1,8.44-8.43A8.45,8.45,0,0,1,21.47,33.56Zm0-14.61a6.18,6.18,0,1,0,6.18,6.18A6.18,6.18,0,0,0,21.47,19Z" fill="#fff"/></svg>