<svg xmlns="http://www.w3.org/2000/svg" viewBox="0 0 66.13 77.77"><defs><style>.cls-1{fill:#fff;}.cls-2{fill:#fbd208;}</style></defs><g id="Layer_2" data-name="Layer 2"><g id="Layer_1-2" data-name="Layer 1"><path class="cls-1" d="M55.11,48.24a9.43,9.43,0,1,1,9.42-9.43A9.43,9.43,0,0,1,55.11,48.24Z"/><path class="cls-2" d="M44.09,38.81a11,11,0,1,1,11,11A11,11,0,0,1,44.09,38.81Zm18.85,0a7.84,7.84,0,1,0-7.83,7.84A7.84,7.84,0,0,0,62.94,38.81Z"/><path class="cls-1" d="M22.45,53c-3,0-6.24-1.77-9.09-4.06C8.79,45.24,2.27,38.81,2.27,38.81S8.79,32.38,13.36,28.7c2.85-2.3,6.07-4.07,9.09-4.07,7.83,0,27.87,13.58,27.87,14.18S30.28,53,22.45,53Z"/><path class="cls-2" d="M0,38.81l1.15-1.14c.27-.26,6.63-6.52,11.21-10.21C16,24.52,19.39,23,22.45,23c6.87,0,29.46,13,29.46,15.77S29.32,54.59,22.45,54.59c-3.05,0-6.45-1.48-10.09-4.41-4.58-3.7-10.94-10-11.21-10.24Zm47.83,0c-4.54-3.26-19.45-12.59-25.38-12.59-2.28,0-5.08,1.29-8.09,3.72-3.31,2.67-7.73,6.87-9.81,8.87,2.08,2,6.5,6.21,9.81,8.89,3,2.42,5.81,3.7,8.09,3.7C28.41,51.4,43.3,42.08,47.83,38.81Z"/><path class="cls-1" d="M22.17,53.42A14.61,14.61,0,1,1,36.79,38.81,14.6,14.6,0,0,1,22.17,53.42Z"/><path class="cls-2" d="M6,38.81A16.21,16.21,0,1,1,22.17,55,16.22,16.22,0,0,1,6,38.81Zm29.22,0a13,13,0,1,0-13,13A13,13,0,0,0,35.19,38.81Z"/><path class="cls-2" d="M18.49,38.81A18.69,18.69,0,0,1,37.17,20.15v3.19a15.48,15.48,0,1,0,0,31v3.19A18.7,18.7,0,0,1,18.49,38.81Z"/><path class="cls-1" d="M42.54,46a7.21,7.21,0,1,1,7.22-7.22A7.22,7.22,0,0,1,42.54,46Z"/><path class="cls-2" d="M33.75,38.81a8.8,8.8,0,1,1,8.79,8.81A8.8,8.8,0,0,1,33.75,38.81Zm14.41,0a5.61,5.61,0,1,0-5.62,5.62A5.61,5.61,0,0,0,48.16,38.81Z"/><path class="cls-1" d="M45.35,70.25A14.41,14.41,0,1,1,22,53.3c4.67-6.44,28.31-14.43,28.31-14.43S50,63.83,45.35,70.25Z"/><path class="cls-2" d="M17.68,61.76a15.85,15.85,0,0,1,3.07-9.4c4.83-6.66,26.63-14.16,29.09-15a1.63,1.63,0,0,1,1.45.22A1.58,1.58,0,0,1,52,38.89c0,2.61-.48,25.66-5.31,32.29a16,16,0,0,1-29-9.42Zm31-20.62c-7.54,2.7-22.14,8.63-25.39,13.09a13.17,13.17,0,0,0,2.83,17.91,12.84,12.84,0,0,0,17.91-2.83C47.3,64.86,48.45,49.15,48.71,41.14Z"/><path class="cls-1" d="M45.32,7.5A14.38,14.38,0,0,0,22.07,24.42c4.66,6.42,28.25,14.39,28.25,14.39S50,13.92,45.32,7.5Z"/><path class="cls-2" d="M17.72,16h0A16,16,0,0,1,46.61,6.56c4.82,6.65,5.27,29.63,5.3,32.23a1.41,1.41,0,0,1-.65,1.31,1.63,1.63,0,0,1-1.45.22c-2.47-.83-24.21-8.32-29-15A15.82,15.82,0,0,1,17.72,16Zm31,20.57c-.26-8-1.41-23.65-4.64-28.11A12.79,12.79,0,0,0,20.91,16h0a12.7,12.7,0,0,0,2.45,7.51C26.59,27.93,41.15,33.84,48.67,36.54Z"/></g></g></svg>