<?xml version="1.0" encoding="utf-8"?>
<!-- Generator: Adobe Illustrator 25.0.1, SVG Export Plug-In . SVG Version: 6.00 Build 0)  -->
<svg version="1.1" id="Layer_1" xmlns="http://www.w3.org/2000/svg" xmlns:xlink="http://www.w3.org/1999/xlink" x="0px" y="0px"
	 viewBox="0 0 476 224.9" style="enable-background:new 0 0 476 224.9;" xml:space="preserve">
<style type="text/css">
	.st0{clip-path:url(#SVGID_2_);}
	.st1{fill:#FECF0A;}
	.st2{enable-background:new    ;}
	.st3{fill:#3E3E3E;}
</style>
<g>
	<defs>
		<rect id="SVGID_1_" x="0" width="481.9" height="230.8"/>
	</defs>
	<clipPath id="SVGID_2_">
		<use xlink:href="#SVGID_1_"  style="overflow:visible;"/>
	</clipPath>
	<g class="st0">
		<path class="st1" d="M74.7,41.2l-9.5,0.6c-0.1-0.4-0.2-0.8-0.2-1.1c-0.5-3.6-1.4-7.1-2.7-10.4c-1.3-3.5-3.2-6.7-5.7-9.5
			C49.8,12.9,40.3,8,30,6.9c-2.7-0.3-5.4-0.3-8.1-0.1L21,7c-0.1,0.7-0.2,1.3-0.2,2c-0.4,7.2,1,14.3,4.2,20.8c1.8,3.5,4,6.8,6.6,9.7
			c1.9,2,3.9,3.8,6.2,5.3c0.2,0.1,0.3,0.2,0.4,0.3s0,0.1,0.1,0.2l-1.3,0.4c-1.8,0.6-3.6,1.2-5.3,1.8c-0.5,0.2-1.1,0.1-1.5-0.3
			c-5.8-5.2-10.2-11.6-13-18.9c-1.9-5-2.9-10.3-3-15.6c-0.1-3,0.1-6.1,0.6-9.1c0.1-1.6,1.4-2.9,3-3.1c3.2-0.5,6.5-0.7,9.7-0.6
			c2.9,0.1,5.7,0.5,8.5,1.1c3.3,0.7,6.4,1.8,9.5,3.2c4.1,1.9,8,4.3,11.4,7.3c5.8,4.9,10.1,11.2,12.4,18.3c0.1,0.4,0.3,0.7,0.5,1.2
			c0.2-0.5,0.4-0.8,0.5-1.1c1.3-3.4,3.1-6.6,5.4-9.6c2.8-4.1,6.9-7.1,11.5-8.7c11.1-3.6,23,2.5,26.6,13.6c0.6,1.8,0.9,3.7,1,5.6
			c0.3,5.2-1.4,10.3-4.7,14.3c-1.9,2.2-4.1,4.2-6.5,5.8c-4.7,3.2-10,5.4-15.6,6.5c-5,1-10.1,1.6-15.2,1.8
			c-6.2,0.4-12.5,0.9-18.7,1.4c-4.8,0.5-9.6,1.5-14.2,3c-5.2,1.6-10,4.2-14.3,7.7C18.9,77,13.6,84.4,10.6,92.8
			c-1.9,5-3,10.2-3.3,15.4c-0.2,3-0.1,5.9,0.2,8.9c0,0.3,0.1,0.6,0.2,0.8c6.2,1.5,22.4-0.7,26.3-3.6c-0.3-0.3-0.6-0.7-0.9-1.1
			c-4.1-4.2-8.3-8.3-12.4-12.4c-0.8-0.6-1-1.6-0.5-2.4c0.6-1.4,1.2-2.9,1.7-4.4c0.1-0.3,0.3-0.7,0.6-1.2l1,1
			c5.4,5.4,10.9,10.9,16.3,16.3c1,1,1,1.3,2.4,0.3c2-1.5,4.1-2.9,6.1-4.4c0.3-0.2,0.5-0.5,0.7-0.7c-1.3-1.4-2.8-2.8-4.1-4.2
			s-2.8-2.8-4.2-4.2l-4.1-4.2l-4.2-4.2l-4.2-4.2c1.3-1.9,3-3.5,4.9-4.8c0.4,0.3,0.8,0.6,1.1,1L52.5,99c0.4,0.4,0.8,0.8,1.3,1.2
			c0.3-0.2,0.5-0.5,0.7-0.7c1.6-2,3-4.2,4.2-6.5c0.7-1.2,0.7-1.2-0.3-2.2L43,75.4l-1-1c0.2-0.1,0.4-0.3,0.7-0.4
			c2.1-0.6,4.2-1.1,6.3-1.8c0.6-0.2,1.1,0.1,1.5,0.5c3.6,3.6,7.2,7.2,10.7,10.7l0.9,0.9c0.5-0.2,0.5-0.7,0.7-1
			c1-3.8,1.8-7.6,2.2-11.5c0.1-0.5,0.1-1,0.2-1.5l9.2-0.6c0.1,0.5,0.2,0.9,0.3,1.4c0.6,3.5,1.5,6.9,2.7,10.2c1.4,3.6,3.4,6.9,6,9.8
			c4.6,5.2,10.5,9,17,11.3c4.6,1.6,9.4,2.4,14.2,2.3c1.3,0,2.7-0.2,4.1-0.2c0.1-0.9,0.2-1.7,0.2-2.6c0.3-6.4-0.9-12.8-3.4-18.6
			c-1.7-3.9-3.9-7.4-6.7-10.6c-2.4-2.9-5.3-5.3-8.5-7.2c-0.1-0.1-0.3-0.2-0.4-0.2c-0.1,0-0.1-0.1-0.2-0.2l6.8-3.2
			c0.7,0.5,1.4,1,2.1,1.5c2.2,1.8,4.2,3.8,5.9,6c8.7,10.5,12.5,24.2,10.5,37.6c-0.1,0.7-0.3,1.5-0.6,2.1c-0.6,1-1.5,1.6-2.6,1.7
			c-5.9,0.9-12,0.8-17.9-0.5c-6.1-1.3-11.8-3.8-16.9-7.4c-7.3-4.7-12.9-11.7-16-19.7c-0.1-0.3-0.3-0.6-0.4-1
			c-0.4,0.3-0.4,0.7-0.6,1.1c-0.8,2.6-1.6,5.3-2.6,7.9c-1.6,4-3.7,7.7-6.2,11.1c-2.3,3.1-4.9,5.9-7.8,8.4c-3.2,2.8-6.7,5.2-10.5,7.2
			c-11.7,6.4-25.2,8.8-38.4,6.8c-2.4-0.4-3.4-1.2-3.7-3.8s-0.6-5.3-0.7-7.9c-0.2-5.4,0.4-10.9,1.7-16.2C3.4,90.5,6,84.5,9.6,79
			c2.4-3.8,5.3-7.3,8.5-10.4c3.9-3.8,8.3-6.9,13.2-9.2c5.3-2.5,10.9-4.2,16.7-5.1c5.7-1,11.5-1.4,17.2-1.8c5.5-0.4,11-0.7,16.5-1.3
			c5.3-0.5,10.4-2,15.1-4.5c2.9-1.5,5.5-3.5,7.7-6c4.8-6,3.9-14.8-2.2-19.7c-4.8-3.8-11.5-4.1-16.5-0.7c-1.6,1.1-3,2.5-4.1,4.1
			c-2,2.5-3.6,5.4-4.7,8.5c-0.7,2.1-1.2,4.2-1.8,6.4C74.9,39.8,74.8,40.4,74.7,41.2"/>
		<g>
			<g class="st2">
				<path class="st1" d="M103.4,59.7c2.4,0.4,3.6,1.4,3.6,3.1l-0.8,6.5V71c1.2,27.5,2.9,45.8,5,54.8l0.2,0.4h0.4
					c1.9-1.9,4.2-3.1,7-3.7c8.3,2.4,12.4,8.4,12.4,18.1v2.8c-0.4,11.4-3.9,18.4-10.7,21.1l-2.7,0.3h-1.1l-0.4-0.3l-1,0.3v1.8
					c0,1.3-0.7,2.2-2.1,2.8h-1.3c-2.4,0-3.6-2.6-3.6-7.7c-0.4-3.1-1.5-6.1-3.1-8.9v-1l1-1.8l-0.7-6.9l0.4-3.9
					c-4.3-32.7-6.5-55.7-6.5-69.2C99.4,63.1,100.7,59.7,103.4,59.7z M112.9,139.6c0,12.1,1.3,18.1,3.8,18.1l0.4,0.4h2
					c3.7-2.9,5.6-8.1,5.6-15.7c0-6.2-1.6-10.4-4.9-12.7h-2.5C114.4,132,112.9,135.3,112.9,139.6z"/>
				<path class="st1" d="M147.7,121.3c4.2,0,7,3.8,8.5,11.3c-1.9,8.4-5.9,12.6-11.9,12.6h-0.4v0.3c1.2,6.8,4.4,10.2,9.5,10.2
					c3.9,0,7.1-3.4,9.6-10.2l2.5-1c1.6,0,2.7,1.3,3.1,3.8c0,4.6-3.6,9-10.8,13.1l-5.4,1c-6.4,0-11.2-4.6-14.4-13.7
					c-0.9-3.6-1.3-6.7-1.3-9v-1.5c0-7.6,3.2-13.1,9.5-16.5L147.7,121.3z M143.5,135.4v0.2l2.5,2.6c1.1,0,2.2-1.5,3.1-4.6v-1.8
					c-0.4-2.3-0.9-3.5-1.5-3.5H147C145.9,128.4,144.7,130.7,143.5,135.4z"/>
			</g>
		</g>
		<g>
			<g class="st2">
				<path class="st1" d="M185.6,121.3c4.2,0,7,3.8,8.5,11.3c-1.9,8.4-5.9,12.6-11.9,12.6h-0.4v0.3c1.2,6.8,4.4,10.2,9.5,10.2
					c3.9,0,7.1-3.4,9.6-10.2l2.5-1c1.6,0,2.7,1.3,3.1,3.8c0,4.6-3.6,9-10.8,13.1l-5.4,1c-6.4,0-11.2-4.6-14.4-13.7
					c-0.9-3.6-1.3-6.7-1.3-9v-1.5c0-7.6,3.2-13.1,9.5-16.5L185.6,121.3z M181.5,135.4v0.2l2.5,2.6c1.1,0,2.2-1.5,3.1-4.6v-1.8
					c-0.4-2.3-0.9-3.5-1.5-3.5h-0.7C183.8,128.4,182.7,130.7,181.5,135.4z"/>
			</g>
		</g>
		<g>
			<g class="st2">
				<path class="st3" d="M216.5,53.1c1.6,0,2.6,1.3,2.9,3.9v6.2c0,15.1-0.1,35.2-0.3,60.3c2.8-2.8,5.3-4.1,7.7-4.1
					c6,0,9.9,6.5,11.7,19.6c0.2,9.7,0.8,18.2,1.7,25.3c0,1.3-1.2,2.4-3.6,3.5c-2.5-1.3-3.8-2.6-3.8-4.1l0.4-0.3v-0.4
					c-1.1-22.5-2.3-33.7-3.6-33.7c-0.9-1.8-1.7-2.8-2.5-3.1h-1.1c-3.7,3.3-5.6,7.3-5.6,11.9l0.2,24c-0.9,2.2-2,3.2-3.5,3.2
					c-2.5,0-4-3.4-4.7-10.3c0.5-4.5,0.8-8.4,0.8-11.7V143l-0.2-0.3l0.2-0.3v-2.8l0.7-51c-0.9-8.3-1.3-16.5-1.3-24.5v-6.7
					C212.9,54.5,214.1,53.1,216.5,53.1z"/>
				<path class="st3" d="M263.8,123.8l6.7,1.1v-0.3c1.6,0,2.9,1.3,3.8,3.9l-0.3,7v4.9c0,7.2,1,12.6,3.1,16.2
					c-0.6,1.9-1.7,2.8-3.5,2.8c-2.5,0-4.2-2.8-5.4-8.5l-0.2-1.8h-1c-2.7,6.3-6.5,10.5-11.4,12.6l-1.7,0.4c-6.4-1.8-9.6-6.5-9.6-14.1
					v-0.7c0-9.4,4.6-17,13.7-22.5L263.8,123.8z M251.1,149.6c0.5,3.7,1.7,5.6,3.6,5.6h0.3c2.6,0,6.7-7.8,12.3-23.5v-0.3l-3.2-0.7
					h-0.2c-6,0-10.2,5.1-12.7,15.4V149.6z"/>
			</g>
		</g>
		<g>
			<g class="st2">
				<path class="st3" d="M300.9,119.9c7.5,0,13.9,6,19.2,18l1.6,7.4c0,9-5.9,14.3-17.6,15.8h-0.8c-2.7,0-5.1-0.7-7.3-2.1h-1.1
					c1.1,30.8,1.7,51.5,1.7,62c-0.7,2.6-1.9,3.9-3.6,3.9c-2.4,0-3.6-1.9-3.6-5.7v-1.5c0-11.5-0.4-31.4-1.2-59.9
					c-1-12.6-1.5-22.4-1.5-29.1v-2.3c0-3.8,1.2-5.7,3.5-5.7h1.6c1.3,0.8,2,1.9,2,3.1c2.4-2.3,4.1-3.5,5.2-3.5L300.9,119.9z
					 M296.6,138.6c-1.3,10.5,0.6,15.7,5.9,15.7h1.8c6,0,9.6-2.8,10.6-8.5v-1c0-5-2.6-10.1-7.8-15.4c-2.2-1.9-4.1-2.9-5.9-2.9
					C298.7,126.4,297.2,130.4,296.6,138.6z"/>
				<path class="st3" d="M344.5,119.9c7.5,0,13.9,6,19.2,18l1.6,7.4c0,9-5.9,14.3-17.6,15.8h-0.8c-2.7,0-5.1-0.7-7.3-2.1h-1.1
					c1.1,30.8,1.7,51.5,1.7,62c-0.7,2.6-1.9,3.9-3.6,3.9c-2.4,0-3.6-1.9-3.6-5.7v-1.5c0-11.5-0.4-31.4-1.2-59.9
					c-1-12.6-1.5-22.4-1.5-29.1v-2.3c0-3.8,1.2-5.7,3.5-5.7h1.6c1.3,0.8,2,1.9,2,3.1c2.4-2.3,4.1-3.5,5.2-3.5L344.5,119.9z
					 M340.3,138.6c-1.3,10.5,0.6,15.7,5.9,15.7h1.8c6,0,9.6-2.8,10.6-8.5v-1c0-5-2.6-10.1-7.8-15.4c-2.2-1.9-4.1-2.9-5.9-2.9
					C342.4,126.4,340.8,130.4,340.3,138.6z"/>
				<path class="st3" d="M373.4,59.7c2.4,0.4,3.6,1.4,3.6,3.1l-0.8,6.5V71c1.2,27.5,2.9,45.8,5,54.8l0.2,0.4h0.4
					c1.9-1.9,4.2-3.1,7-3.7c8.3,2.4,12.4,8.4,12.4,18.1v2.8c-0.4,11.4-3.9,18.4-10.7,21.1l-2.7,0.3h-1.1l-0.4-0.3l-1,0.3v1.8
					c0,1.3-0.7,2.2-2.1,2.8h-1.3c-2.4,0-3.6-2.6-3.6-7.7c-0.4-3.1-1.5-6.1-3.1-8.9v-1l1-1.8l-0.7-6.9l0.4-3.9
					c-4.3-32.7-6.5-55.7-6.5-69.2C369.5,63.1,370.8,59.7,373.4,59.7z M383,139.6c0,12.1,1.3,18.1,3.8,18.1l0.4,0.4h2
					c3.7-2.9,5.6-8.1,5.6-15.7c0-6.2-1.6-10.4-4.9-12.7h-2.5C384.5,132,383,135.3,383,139.6z"/>
				<path class="st3" d="M417.7,121.3c4.2,0,7,3.8,8.5,11.3c-1.9,8.4-5.9,12.6-11.9,12.6h-0.4v0.3c1.2,6.8,4.4,10.2,9.5,10.2
					c3.9,0,7.1-3.4,9.6-10.2l2.5-1c1.6,0,2.7,1.3,3.1,3.8c0,4.6-3.6,9-10.8,13.1l-5.4,1c-6.4,0-11.2-4.6-14.4-13.7
					c-0.9-3.6-1.3-6.7-1.3-9v-1.5c0-7.6,3.2-13.1,9.5-16.5L417.7,121.3z M413.6,135.4v0.2l2.5,2.6c1.1,0,2.2-1.5,3.1-4.6v-1.8
					c-0.4-2.3-0.9-3.5-1.5-3.5H417C415.9,128.4,414.8,130.7,413.6,135.4z"/>
				<path class="st3" d="M453.6,121.3c4.2,0,7,3.8,8.5,11.3c-1.9,8.4-5.9,12.6-11.9,12.6h-0.4v0.3c1.2,6.8,4.4,10.2,9.5,10.2
					c3.9,0,7.1-3.4,9.6-10.2l2.5-1c1.6,0,2.7,1.3,3.1,3.8c0,4.6-3.6,9-10.8,13.1l-5.4,1c-6.4,0-11.2-4.6-14.4-13.7
					c-0.9-3.6-1.3-6.7-1.3-9v-1.5c0-7.6,3.2-13.1,9.5-16.5L453.6,121.3z M449.5,135.4v0.2l2.5,2.6c1.1,0,2.2-1.5,3.1-4.6v-1.8
					c-0.4-2.3-0.9-3.5-1.5-3.5H453C451.8,128.4,450.7,130.7,449.5,135.4z"/>
			</g>
		</g>
	</g>
</g>
</svg>
