<svg xmlns="http://www.w3.org/2000/svg" viewBox="0 0 49.69 51.06"><path d="M41.79,27.67V13.58l-17-7-17,7V27.67Zm-22.7-11H30.42a3.23,3.23,0,0,1,0,6.45H19.09a3.23,3.23,0,0,1,0-6.45Z" fill="none"/><rect x="10.89" y="47.62" width="4.88" height="1.17" fill="none"/><rect x="33.71" y="47.62" width="4.89" height="1.17" fill="none"/><path d="M47.35,12.54a.78.78,0,0,0,0-.6A.77.77,0,0,0,47,11.5l-22.22-9-22,9.07a.75.75,0,0,0-.41.42.81.81,0,0,0,0,.61.9.9,0,0,0,1.14.36l2-.81h0L24.75,4.16,46.2,12.89A.79.79,0,0,0,47.35,12.54Z" fill="none"/><path d="M19.09,20.84H30.42a1,1,0,0,0,0-1.91H19.09a1,1,0,0,0,0,1.91Z" fill="none"/><path d="M19.09,38.93H30.42a1,1,0,0,0,0-1.92H19.09a1,1,0,0,0,0,1.92Z" fill="none"/><path d="M7.71,45.36H41.78V29.94H7.71ZM19.09,34.74H30.42a3.23,3.23,0,0,1,0,6.46H19.09a3.23,3.23,0,0,1,0-6.46Z" fill="none"/><polygon points="5.44 12.1 24.75 4.16 5.44 12.09 5.44 12.1" fill="#fff"/><path d="M49.51,11.15a3.11,3.11,0,0,0-1.65-1.73l-6.63-2.7L24.75,0,1.83,9.43a3.07,3.07,0,0,0-1.64,1.7,3.12,3.12,0,0,0,.1,2.38A3.26,3.26,0,0,0,4.37,15l1.07-.44V29.94h0V47.62H8.63v3.44H18V47.62h13.4v3.44h9.42V47.62h3.19V29.94h0V14.48l1.26.5a3.17,3.17,0,0,0,1.29.27,3.05,3.05,0,0,0,2.9-4.1Zm-24.76-7L5.44,12.1l-2,.81a.9.9,0,0,1-1.14-.36.81.81,0,0,1,0-.61.75.75,0,0,1,.41-.42l22-9.07L47,11.5a.77.77,0,0,1,.41.44.78.78,0,0,1,0,.6.79.79,0,0,1-1.15.35Zm0,2.45,17,7V27.67H7.7V13.62Zm-9,42.18H10.89V47.62h4.89Zm22.81,0H33.71V47.62h4.88Zm3.19-3.43H7.71V29.94H41.78Z" fill="#fda809"/><path d="M19.09,23.11H30.42a3.23,3.23,0,0,0,0-6.45H19.09a3.23,3.23,0,0,0,0,6.45Zm0-4.18H30.42a1,1,0,0,1,0,1.91H19.09a1,1,0,0,1,0-1.91Z" fill="#fda809"/><path d="M19.09,41.2H30.42a3.23,3.23,0,0,0,0-6.46H19.09a3.23,3.23,0,0,0,0,6.46Zm0-4.19H30.42a1,1,0,0,1,0,1.92H19.09a1,1,0,0,1,0-1.92Z" fill="#fda809"/></svg>